<?xml version="1.0" encoding="utf-8"?>
<!-- Generator: Adobe Illustrator 23.0.4, SVG Export Plug-In . SVG Version: 6.00 Build 0)  -->
<svg version="1.1" id="Layer_1" xmlns="http://www.w3.org/2000/svg" xmlns:xlink="http://www.w3.org/1999/xlink" x="0px" y="0px"
	 viewBox="0 0 157 20" style="enable-background:new 0 0 157 20;" xml:space="preserve">
<title>logo</title>
<desc>Created with Sketch.</desc>
<g>
	<path d="M0,4.1h4.5c4.8,0,7.9,2.3,7.9,7.7c0,5.4-3.1,7.9-7.7,7.9H0V4.1z M4.3,16.7c2.5,0,4.3-1.2,4.3-4.9c0-3.7-1.8-4.7-4.3-4.7
		H3.8v9.6H4.3z"/>
	<path d="M12.9,13.7c0-4,2.8-6.3,5.9-6.3c3,0,5.8,2.3,5.8,6.3c0,3.9-2.8,6.3-5.8,6.3C15.7,20,12.9,17.7,12.9,13.7z M20.7,13.7
		c0-2-0.6-3.3-2-3.3c-1.4,0-2,1.3-2,3.3c0,2,0.6,3.2,2,3.2C20.1,17,20.7,15.7,20.7,13.7z"/>
	<path d="M24.3,7.8H28l1.1,5.4c0.2,1.2,0.3,2.4,0.5,3.6h0.1c0.2-1.2,0.4-2.4,0.7-3.6l1.2-5.4h3.2l1.3,5.4c0.3,1.2,0.5,2.4,0.7,3.6
		h0.1c0.2-1.2,0.3-2.4,0.5-3.6l1-5.4H42l-2.8,11.9h-4.4l-1-4.6c-0.2-1.1-0.4-2.2-0.6-3.5H33c-0.2,1.3-0.4,2.4-0.6,3.5l-1,4.6h-4.3
		L24.3,7.8z"/>
	<path d="M42.6,2.9h3.7v4l-0.2,2.1c0.9-0.8,2-1.6,3.7-1.6c2.6,0,3.7,1.9,3.7,4.9v7.4h-3.7v-6.9c0-1.6-0.4-2.1-1.4-2.1
		c-0.8,0-1.3,0.4-2.1,1.1v8h-3.7V2.9z"/>
	<path d="M54.4,16.4c0-2.5,2-3.9,6.6-4.4c-0.1-1-0.6-1.5-1.8-1.5c-0.9,0-1.9,0.4-3.1,1L54.8,9c1.6-0.9,3.3-1.6,5.1-1.6
		c3.1,0,4.8,1.7,4.8,5.5v6.8h-3l-0.3-1.2h-0.1c-1,0.9-2.1,1.5-3.4,1.5C55.8,20,54.4,18.4,54.4,16.4z M61,16.2v-1.9
		c-2.3,0.3-3.1,1-3.1,1.8c0,0.7,0.5,1,1.3,1C60,17.1,60.5,16.7,61,16.2z"/>
	<path d="M69.8,4.1h3.8v6.2h0.1l4.4-6.2h4.1l-4.7,6.3l5.6,9.4H79l-3.7-6.4l-1.7,2.3v4.1h-3.8V4.1z"/>
	<path d="M83.2,4.1H87v15.6h-3.8V4.1z"/>
	<path d="M89.1,4.1h4.1l2.5,6.7c0.3,0.9,0.6,1.9,0.9,2.9h0.1c0.3-1,0.6-2,0.9-2.9l2.4-6.7h4.1v15.6h-3.4v-5.4c0-1.6,0.3-3.9,0.5-5.4
		h-0.1l-1.3,3.7l-2.1,5.7h-2.1l-2.1-5.7l-1.3-3.7H92c0.2,1.5,0.5,3.9,0.5,5.4v5.4h-3.4V4.1z"/>
</g>
</svg>
